<svg width="28" height="32" viewBox="0 0 28 32" fill="none" xmlns="http://www.w3.org/2000/svg" xmlns:xlink="http://www.w3.org/1999/xlink">
<path d="M27.032,5.236C27.032,3.659 26.552,2.415 25.593,1.502C24.634,0.589 23.36,0.132 21.771,0.132L4.549,0.132C2.96,0.132 1.685,0.589 0.727,1.502C-0.232,2.415 -0.712,3.659 -0.712,5.236C-0.712,5.932 -0.689,6.612 -0.643,7.275C-0.597,7.938 -0.505,8.654 -0.367,9.423C-0.229,10.191 -0.055,10.904 0.155,11.561C0.365,12.218 0.648,12.858 1.002,13.482C1.357,14.106 1.764,14.638 2.224,15.078C2.684,15.518 3.245,15.869 3.909,16.132C4.572,16.395 5.305,16.526 6.106,16.526C6.224,16.526 6.5,16.385 6.933,16.103C7.367,15.82 7.856,15.505 8.401,15.157C8.947,14.809 9.656,14.493 10.529,14.211C11.403,13.929 12.28,13.787 13.16,13.787C14.04,13.787 14.917,13.929 15.791,14.211C16.664,14.493 17.373,14.809 17.919,15.157C18.464,15.505 18.953,15.82 19.387,16.103C19.82,16.385 20.096,16.526 20.214,16.526C21.015,16.526 21.748,16.395 22.411,16.132C23.075,15.869 23.636,15.518 24.096,15.078C24.556,14.638 24.963,14.106 25.318,13.482C25.672,12.858 25.955,12.218 26.165,11.561C26.375,10.904 26.549,10.191 26.687,9.423C26.825,8.654 26.917,7.938 26.963,7.275C27.009,6.612 27.032,5.932 27.032,5.236ZM18.51,28.181C18.51,28.181 18.879,27.812 19.618,27.073C20.357,26.334 20.726,24.92 20.726,22.832C20.726,20.743 19.988,18.96 18.51,17.482C17.032,16.004 15.249,15.265 13.16,15.265C11.071,15.265 9.288,16.004 7.81,17.482C6.332,18.96 5.594,20.743 5.594,22.832C5.594,24.92 6.332,26.704 7.81,28.181C9.288,29.659 11.071,30.398 13.16,30.398C15.249,30.398 17.032,29.659 18.51,28.181Z" fill="#D98473"/>
</svg>
