<svg width="32" height="34" viewBox="0 0 32 34" fill="none" xmlns="http://www.w3.org/2000/svg" xmlns:xlink="http://www.w3.org/1999/xlink">
<path d="M19.114,12.812C19.114,12.812 19.546,13.244 20.41,14.108C21.273,14.971 21.705,16.618 21.705,19.048C21.705,21.479 20.842,23.557 19.114,25.285C17.387,27.012 15.308,27.876 12.878,27.876C10.448,27.876 8.369,27.012 6.641,25.285C4.914,23.557 4.05,21.479 4.05,19.048C4.05,16.618 4.914,14.539 6.641,12.812C8.369,11.085 10.448,10.221 12.878,10.221C15.308,10.221 17.387,11.085 19.114,12.812ZM31.794,2.654C31.794,1.971 31.544,1.38 31.045,0.881C30.546,0.382 29.955,0.132 29.272,0.132C28.562,0.132 27.971,0.382 27.498,0.881L20.74,7.62C18.388,5.991 15.768,5.176 12.878,5.176C10.999,5.176 9.203,5.541 7.489,6.27C5.774,6.999 4.296,7.984 3.055,9.226C1.814,10.467 0.829,11.945 0.099,13.659C-0.63,15.374 -0.994,17.17 -0.994,19.048C-0.994,20.927 -0.63,22.723 0.099,24.438C0.829,26.152 1.814,27.63 3.055,28.871C4.296,30.112 5.774,31.098 7.489,31.827C9.203,32.556 10.999,32.92 12.878,32.92C14.756,32.92 16.553,32.556 18.267,31.827C19.981,31.098 21.459,30.112 22.7,28.871C23.942,27.63 24.927,26.152 25.656,24.438C26.385,22.723 26.75,20.927 26.75,19.048C26.75,16.158 25.935,13.538 24.306,11.186L31.065,4.428C31.551,3.942 31.794,3.351 31.794,2.654Z" fill="#D98473"/>
</svg>
